<svg width="28" height="28" viewBox="0 0 28 28" fill="none" xmlns="http://www.w3.org/2000/svg">
<path d="M26 23.3684V14.5092C26 13.7953 25.8528 13.0889 25.5675 12.4329C25.2821 11.7769 24.8645 11.1851 24.34 10.6934L15.8373 2.72369C15.3417 2.25906 14.6843 2 14.0007 2C13.3171 2 12.6596 2.25906 12.164 2.72369L3.66 10.6934C3.13554 11.1851 2.71791 11.7769 2.43254 12.4329C2.14716 13.0889 2 13.7953 2 14.5092V23.3684C2 24.0664 2.28095 24.7357 2.78105 25.2292C3.28115 25.7227 3.95942 26 4.66667 26H23.3333C24.0406 26 24.7189 25.7227 25.219 25.2292C25.719 24.7357 26 24.0664 26 23.3684Z" stroke="white" stroke-width="3" stroke-linecap="round" stroke-linejoin="round"/>
</svg>
