<svg width="26" height="32" viewBox="0 0 26 32" fill="none" xmlns="http://www.w3.org/2000/svg">
<path d="M13 18.1875C11.9184 18.1875 10.8611 17.8668 9.96173 17.2659C9.0624 16.6649 8.36145 15.8108 7.94754 14.8116C7.53362 13.8123 7.42532 12.7127 7.63633 11.6519C7.84735 10.591 8.36819 9.61658 9.13301 8.85176C9.89783 8.08694 10.8723 7.5661 11.9331 7.35508C12.9939 7.14407 14.0935 7.25237 15.0928 7.66629C16.0921 8.0802 16.9462 8.78115 17.5471 9.68048C18.148 10.5798 18.4688 11.6371 18.4688 12.7188C18.467 14.1686 17.8903 15.5586 16.8651 16.5838C15.8399 17.609 14.4499 18.1858 13 18.1875ZM13 9.4375C12.351 9.4375 11.7166 9.62995 11.177 9.99049C10.6374 10.351 10.2169 10.8635 9.96852 11.4631C9.72017 12.0626 9.65519 12.7224 9.7818 13.3589C9.90841 13.9954 10.2209 14.5801 10.6798 15.0389C11.1387 15.4978 11.7234 15.8103 12.3599 15.937C12.9964 16.0636 13.6561 15.9986 14.2557 15.7502C14.8553 15.5019 15.3677 15.0813 15.7283 14.5417C16.0888 14.0021 16.2813 13.3677 16.2813 12.7188C16.2804 11.8488 15.9344 11.0147 15.3192 10.3995C14.7041 9.78435 13.87 9.43837 13 9.4375Z" fill="white"/>
<path d="M13 31.3125L3.77314 20.4308C3.64493 20.2674 3.51805 20.103 3.39251 19.9375C1.8164 17.8613 0.964942 15.3254 0.968763 12.7188C0.968763 9.52786 2.23634 6.46767 4.49263 4.21137C6.74893 1.95507 9.80913 0.6875 13 0.6875C16.1909 0.6875 19.2511 1.95507 21.5074 4.21137C23.7637 6.46767 25.0313 9.52786 25.0313 12.7188C25.0351 15.3242 24.184 17.859 22.6086 19.9342L22.6075 19.9375C22.6075 19.9375 22.2794 20.3684 22.2302 20.4264L13 31.3125ZM5.13814 18.6195C5.14033 18.6195 5.39407 18.9564 5.45204 19.0286L13 27.9306L20.5578 19.0166C20.6059 18.9564 20.8619 18.6173 20.863 18.6163C22.1505 16.92 22.8463 14.8483 22.8438 12.7188C22.8438 10.108 21.8067 7.60423 19.9606 5.75817C18.1145 3.91211 15.6107 2.875 13 2.875C10.3893 2.875 7.88549 3.91211 6.03943 5.75817C4.19337 7.60423 3.15626 10.108 3.15626 12.7188C3.15397 14.8496 3.85055 16.9225 5.13923 18.6195H5.13814Z" fill="white"/>
</svg>
