<svg width="32" height="32" viewBox="0 0 32 32" fill="none" xmlns="http://www.w3.org/2000/svg">
<path d="M15.9668 32C20.0813 31.9965 24.0372 30.4132 27.0172 27.5774C29.9973 24.7416 31.7739 20.8699 31.9799 16.7622C32.1858 12.6545 30.8055 8.62456 28.1241 5.50507C25.4427 2.38558 21.665 0.414837 17.5715 0V6.48053C19.3121 6.77488 20.9381 7.54242 22.2714 8.69905C23.6047 9.85569 24.5938 11.3568 25.1305 13.038C25.6671 14.7192 25.7306 16.5155 25.3138 18.2304C24.8971 19.9452 24.0163 21.5123 22.7679 22.76C21.5196 24.0077 19.9517 24.888 18.2362 25.3043C16.5207 25.7206 14.7236 25.6569 13.0419 25.1202C11.3601 24.5836 9.85858 23.5946 8.7017 22.2616C7.54481 20.9287 6.77722 19.3032 6.483 17.5632H0.00160408C0.404623 21.5178 2.26006 25.1827 5.20921 27.8492C8.15836 30.5158 11.9918 31.9947 15.9684 32H15.9668ZM0 14.355H6.483C6.81618 12.3873 7.75373 10.572 9.16558 9.16102C10.5774 7.75 12.3936 6.81318 14.3621 6.48053V0C10.6819 0.376276 7.244 2.00933 4.62784 4.6239C2.01168 7.23847 0.377243 10.6747 0 14.3534V14.355Z" fill="white"/>
</svg>
